<?xml version="1.0" standalone="no"?>
<!DOCTYPE svg PUBLIC "-//W3C//DTD SVG 20010904//EN"
 "http://www.w3.org/TR/2001/REC-SVG-20010904/DTD/svg10.dtd">
<svg version="1.0" xmlns="http://www.w3.org/2000/svg"
 width="920.000000pt" height="475.000000pt" viewBox="0 0 920.000000 475.000000"
 preserveAspectRatio="xMidYMid meet">

<g transform="translate(0.000000,475.000000) scale(0.100000,-0.100000)"
fill="#000000" stroke="none">
<path d="M4290 4739 c-1203 -76 -2382 -580 -3575 -1528 -204 -161 -590 -497
-674 -585 l-34 -35 36 -44 c188 -229 770 -827 1012 -1038 506 -443 957 -754
1455 -1003 914 -457 1813 -594 2757 -420 758 139 1566 511 2346 1081 442 323
804 638 1270 1104 l317 318 -62 58 c-554 512 -1218 1000 -1818 1335 -998 558
-2046 819 -3030 757z m580 -650 c1005 -91 1935 -549 2962 -1457 l107 -95 -122
-130 c-138 -148 -453 -445 -632 -597 -812 -689 -1613 -1067 -2415 -1141 -162
-14 -475 -7 -640 16 -895 124 -1777 653 -2625 1575 -78 85 -165 182 -193 216
l-51 61 159 142 c978 876 1936 1341 2910 1414 108 8 435 6 540 -4z"/>
<path d="M4435 3733 c-222 -35 -408 -105 -580 -218 -489 -319 -725 -922 -581
-1485 120 -476 480 -853 943 -989 196 -58 441 -72 633 -37 661 119 1140 688
1140 1354 0 107 -24 305 -39 331 -6 9 -184 -33 -657 -154 -357 -91 -655 -167
-661 -170 -32 -11 -37 -19 453 655 106 146 224 308 263 360 l70 95 -27 22
c-89 74 -333 179 -507 218 -69 16 -386 29 -450 18z"/>
</g>
</svg>
